<svg xmlns="http://www.w3.org/2000/svg" width="24" height="24" viewBox="0 0 24 24">
  <g id="Group_19673" data-name="Group 19673" transform="translate(-222 -1028)">
    <rect id="Rectangle_10999" data-name="Rectangle 10999" width="24" height="24" transform="translate(222 1028)" fill="#222" opacity="0"/>
    <path id="block_FILL0_wght400_GRAD0_opsz48" d="M91,198a10.711,10.711,0,0,1-4.29-.866,10.983,10.983,0,0,1-5.844-5.844,11.056,11.056,0,0,1,0-8.58,10.983,10.983,0,0,1,5.844-5.844,11.056,11.056,0,0,1,8.58,0,10.983,10.983,0,0,1,5.844,5.844,11.056,11.056,0,0,1,0,8.58,10.983,10.983,0,0,1-5.844,5.844A10.711,10.711,0,0,1,91,198Zm0-1.65a9.331,9.331,0,0,0,8.773-12.563,9.731,9.731,0,0,0-1.623-2.81L84.978,194.15a8.816,8.816,0,0,0,2.791,1.636A9.4,9.4,0,0,0,91,196.35Zm-7.122-3.327,13.145-13.145a9.409,9.409,0,0,0-2.81-1.65A9.3,9.3,0,0,0,81.65,187a8.828,8.828,0,0,0,.605,3.231A10.173,10.173,0,0,0,83.878,193.023Z" transform="translate(143 853)" fill="#222"/>
  </g>
</svg>
